<svg xmlns="http://www.w3.org/2000/svg" viewBox="0 0 120 120" width="120" height="120">
  <defs>
    <!-- Military-themed gradients -->
    <linearGradient id="militaryGradient" x1="0%" y1="0%" x2="100%" y2="100%">
      <stop offset="0%" style="stop-color:#2E7D32;stop-opacity:1" />
      <stop offset="50%" style="stop-color:#1B5E20;stop-opacity:1" />
      <stop offset="100%" style="stop-color:#4CAF50;stop-opacity:1" />
    </linearGradient>
    
    <linearGradient id="shieldGradient" x1="0%" y1="0%" x2="100%" y2="100%">
      <stop offset="0%" style="stop-color:#37474F;stop-opacity:1" />
      <stop offset="100%" style="stop-color:#263238;stop-opacity:1" />
    </linearGradient>
    
    <!-- Shadow filter -->
    <filter id="dropshadow" x="-20%" y="-20%" width="140%" height="140%">
      <feDropShadow dx="2" dy="2" stdDeviation="3" flood-color="#000000" flood-opacity="0.4"/>
    </filter>
  </defs>
  
  <!-- Background shield shape -->
  <path d="M 60 10 
           L 95 30 
           L 95 70 
           C 95 85, 85 95, 60 105
           C 35 95, 25 85, 25 70
           L 25 30 
           Z" 
        fill="url(#shieldGradient)" 
        filter="url(#dropshadow)"/>
  
  <!-- Inner shield highlight -->
  <path d="M 60 15 
           L 90 32 
           L 90 68 
           C 90 80, 82 88, 60 98
           C 38 88, 30 80, 30 68
           L 30 32 
           Z" 
        fill="none" 
        stroke="rgba(255,255,255,0.1)" 
        stroke-width="1"/>
  
  <!-- Central tactical grid (3x3) -->
  <g transform="translate(45, 40)" stroke="#66BB6A" stroke-width="2" opacity="0.9">
    <!-- Grid lines -->
    <rect x="0" y="0" width="30" height="30" fill="none"/>
    <line x1="10" y1="0" x2="10" y2="30"/>
    <line x1="20" y1="0" x2="20" y2="30"/>
    <line x1="0" y1="10" x2="30" y2="10"/>
    <line x1="0" y1="20" x2="30" y2="20"/>
  </g>
  
  <!-- Military chevrons (rank symbols) -->
  <g transform="translate(60, 25)" fill="#66BB6A">
    <path d="M 0 0 L -6 6 L -3 6 L 0 3 L 3 6 L 6 6 Z" opacity="0.8"/>
    <path d="M 0 4 L -6 10 L -3 10 L 0 7 L 3 10 L 6 10 Z" opacity="0.8"/>
  </g>
  
  <!-- Strategic X and O positions -->
  <g transform="translate(45, 40)" fill="#A5D6A7">
    <!-- X in center -->
    <g transform="translate(10, 10)">
      <path d="M 2 2 L 8 8 M 8 2 L 2 8" stroke="#A5D6A7" stroke-width="2.5" stroke-linecap="round"/>
    </g>
    
    <!-- O's in corners -->
    <g transform="translate(0, 0)">
      <circle cx="5" cy="5" r="3" fill="none" stroke="#A5D6A7" stroke-width="2"/>
    </g>
    <g transform="translate(20, 20)">
      <circle cx="5" cy="5" r="3" fill="none" stroke="#A5D6A7" stroke-width="2"/>
    </g>
  </g>
  
  <!-- Tactical crosshairs -->
  <g transform="translate(60, 85)" stroke="#66BB6A" stroke-width="1.5" opacity="0.6">
    <circle cx="0" cy="0" r="8" fill="none"/>
    <line x1="-12" y1="0" x2="-8" y2="0"/>
    <line x1="8" y1="0" x2="12" y2="0"/>
    <line x1="0" y1="-12" x2="0" y2="-8"/>
    <line x1="0" y1="8" x2="0" y2="12"/>
    <!-- Center dot -->
    <circle cx="0" cy="0" r="1.5" fill="#66BB6A"/>
  </g>
  
  <!-- Side tactical marks -->
  <g fill="#66BB6A" opacity="0.5">
    <!-- Left marks -->
    <rect x="15" y="45" width="8" height="2"/>
    <rect x="15" y="50" width="6" height="2"/>
    <rect x="15" y="55" width="4" height="2"/>
    
    <!-- Right marks -->
    <rect x="97" y="45" width="8" height="2"/>
    <rect x="99" y="50" width="6" height="2"/>
    <rect x="101" y="55" width="4" height="2"/>
  </g>
  
  <!-- Corner tactical symbols -->
  <g fill="#4CAF50" opacity="0.4">
    <!-- Top corners -->
    <polygon points="35,25 40,20 40,30" />
    <polygon points="85,25 80,20 80,30" />
  </g>
</svg>