<svg xmlns="http://www.w3.org/2000/svg" viewBox="0 0 120 120" width="120" height="120">
  <defs>
    <!-- Gradient definitions for modern look -->
    <linearGradient id="primaryGradient" x1="0%" y1="0%" x2="100%" y2="100%">
      <stop offset="0%" style="stop-color:#1976D2;stop-opacity:1" />
      <stop offset="50%" style="stop-color:#7B1FA2;stop-opacity:1" />
      <stop offset="100%" style="stop-color:#FF9800;stop-opacity:1" />
    </linearGradient>
    
    <linearGradient id="accentGradient" x1="0%" y1="0%" x2="100%" y2="100%">
      <stop offset="0%" style="stop-color:#4CAF50;stop-opacity:1" />
      <stop offset="100%" style="stop-color:#FF5722;stop-opacity:1" />
    </linearGradient>
    
    <!-- Shadow filter -->
    <filter id="dropshadow" x="-20%" y="-20%" width="140%" height="140%">
      <feDropShadow dx="2" dy="2" stdDeviation="3" flood-color="#000000" flood-opacity="0.3"/>
    </filter>
  </defs>
  
  <!-- Background circle with gradient -->
  <circle cx="60" cy="60" r="58" fill="url(#primaryGradient)" filter="url(#dropshadow)"/>
  
  <!-- Inner circle for contrast -->
  <circle cx="60" cy="60" r="50" fill="none" stroke="rgba(255,255,255,0.2)" stroke-width="1"/>
  
  <!-- Tic Tac Toe Grid (3x3) - represents core gameplay -->
  <g transform="translate(35, 35)" stroke="white" stroke-width="2.5" opacity="0.9">
    <!-- Vertical lines -->
    <line x1="16.67" y1="5" x2="16.67" y2="45" stroke-linecap="round"/>
    <line x1="33.33" y1="5" x2="33.33" y2="45" stroke-linecap="round"/>
    <!-- Horizontal lines -->
    <line x1="5" y1="16.67" x2="45" y2="16.67" stroke-linecap="round"/>
    <line x1="5" y1="33.33" x2="45" y2="33.33" stroke-linecap="round"/>
  </g>
  
  <!-- Strategic elements: X and O in winning formation -->
  <g transform="translate(35, 35)" fill="white">
    <!-- Winning diagonal: X's -->
    <g transform="translate(8.33, 8.33)">
      <!-- Top-left X -->
      <path d="M 2 2 L 14 14 M 14 2 L 2 14" stroke="white" stroke-width="3" stroke-linecap="round"/>
    </g>
    <g transform="translate(25, 25)">
      <!-- Center X -->
      <path d="M 2 2 L 14 14 M 14 2 L 2 14" stroke="white" stroke-width="3" stroke-linecap="round"/>
    </g>
    <g transform="translate(41.67, 41.67)">
      <!-- Bottom-right X -->
      <path d="M 2 2 L 14 14 M 14 2 L 2 14" stroke="white" stroke-width="3" stroke-linecap="round"/>
    </g>
    
    <!-- O's in other positions -->
    <g transform="translate(25, 8.33)">
      <!-- Top-center O -->
      <circle cx="8" cy="8" r="6" fill="none" stroke="white" stroke-width="3"/>
    </g>
    <g transform="translate(8.33, 25)">
      <!-- Center-left O -->
      <circle cx="8" cy="8" r="6" fill="none" stroke="white" stroke-width="3"/>
    </g>
  </g>
  
  <!-- Brain/Intelligence symbol in top-right of grid -->
  <g transform="translate(75, 25)" fill="url(#accentGradient)" opacity="0.8">
    <path d="M 8 4 C 12 2, 16 4, 18 8 C 20 6, 22 8, 20 12 C 22 14, 20 18, 16 18 C 14 20, 10 18, 8 16 C 6 18, 4 16, 4 12 C 2 10, 4 6, 8 4 Z" 
          stroke="white" stroke-width="1"/>
    <!-- Brain details -->
    <path d="M 6 8 Q 8 6, 10 8 Q 12 6, 14 8 M 6 12 Q 8 10, 10 12 Q 12 10, 14 12" 
          fill="none" stroke="white" stroke-width="1" opacity="0.7"/>
  </g>
  
  <!-- Strategic arrows indicating tactical thinking -->
  <g transform="translate(15, 75)" fill="rgba(255,255,255,0.6)">
    <!-- Arrow pointing to strategic position -->
    <path d="M 0 5 L 12 5 M 8 1 L 12 5 L 8 9" stroke="rgba(255,255,255,0.6)" stroke-width="2" fill="none" stroke-linecap="round"/>
  </g>
  
  <!-- Tactical symbols: small diamonds indicating strategy points -->
  <g fill="rgba(255,255,255,0.4)">
    <polygon points="15,15 20,20 15,25 10,20" transform="rotate(45 15 20)"/>
    <polygon points="105,15 110,20 105,25 100,20" transform="rotate(45 105 20)"/>
    <polygon points="15,100 20,105 15,110 10,105" transform="rotate(45 15 105)"/>
  </g>
  
  <!-- Central highlight ring -->
  <circle cx="60" cy="60" r="35" fill="none" stroke="rgba(255,255,255,0.1)" stroke-width="1"/>
</svg>